<svg width="20" height="20" viewBox="0 0 20 20" fill="none" xmlns="http://www.w3.org/2000/svg">
<path d="M4.27727 1.71L2.99545 0.29C0 3.563 0 5.935 0 9H0.909091L1.81818 8.937C1.81818 6.009 1.81818 4.396 4.27727 1.71ZM17.0036 0.29L15.7236 1.71C18.1818 4.396 18.1818 6.009 18.1818 9L20 8.937C20 5.935 20 3.563 17.0036 0.29V0.29ZM10 20C10.563 20.0008 11.1122 19.8086 11.5714 19.4502C12.0305 19.0917 12.3767 18.5849 12.5618 18H7.43818C7.62333 18.5849 7.96953 19.0917 8.42865 19.4502C8.88777 19.8086 9.437 20.0008 10 20V20ZM16.3636 12.586V8C16.3636 4.783 14.3773 2.073 11.6864 1.258C11.42 0.52 10.7691 0 10 0C9.23091 0 8.58 0.52 8.31364 1.258C5.62182 2.073 3.63636 4.783 3.63636 8V12.586L2.08455 14.293C1.99996 14.3857 1.93288 14.4959 1.88717 14.6172C1.84145 14.7386 1.81801 14.8687 1.81818 15V16C1.81818 16.2652 1.91396 16.5196 2.08445 16.7071C2.25494 16.8946 2.48617 17 2.72727 17H17.2727C17.5138 17 17.7451 16.8946 17.9156 16.7071C18.086 16.5196 18.1818 16.2652 18.1818 16V15C18.182 14.8687 18.1585 14.7386 18.1128 14.6172C18.0671 14.4959 18 14.3857 17.9155 14.293L16.3636 12.586Z" fill="#008DFF"/>
</svg>
