<svg width="24" height="24" viewBox="0 0 24 24" fill="none" xmlns="http://www.w3.org/2000/svg">
<path d="M11.953 8.81909L11.406 11.0091C12.025 11.1631 13.935 11.7931 14.244 10.5531C14.566 9.26209 12.571 8.97409 11.953 8.81909ZM11.131 12.1151L10.528 14.5301C11.271 14.7151 13.565 15.4511 13.904 14.0891C14.259 12.6671 11.875 12.3001 11.131 12.1151Z" fill="#008DFF"/>
<path d="M14.421 2.29905C9.06398 0.964047 3.64098 4.22405 2.30598 9.58105C0.969981 14.936 4.22998 20.361 9.58298 21.697C14.94 23.032 20.366 19.773 21.7 14.416C23.036 9.06005 19.776 3.63505 14.421 2.29905V2.29905ZM16.412 10.574C16.267 11.548 15.726 12.019 15.01 12.185C15.995 12.697 16.495 13.483 16.019 14.846C15.427 16.537 14.021 16.68 12.149 16.326L11.695 18.146L10.599 17.873L11.046 16.079C10.7536 16.006 10.4619 15.93 10.171 15.851L9.72198 17.655L8.62698 17.38L9.08098 15.557C8.82398 15.491 8.56398 15.421 8.29898 15.355L6.86998 15L7.41598 13.744C7.41598 13.744 8.22398 13.959 8.21298 13.943C8.52398 14.02 8.66098 13.818 8.71498 13.682L9.43398 10.807L9.54898 10.836C9.51188 10.8211 9.47379 10.8087 9.43498 10.799L9.94698 8.74605C9.95998 8.51205 9.88098 8.21805 9.43598 8.10705C9.45398 8.09605 8.63898 7.90905 8.63898 7.90905L8.92998 6.73705L10.444 7.11505L10.443 7.12005C10.67 7.17705 10.904 7.23105 11.143 7.28505L11.592 5.48305L12.689 5.75605L12.249 7.52205C12.543 7.58905 12.84 7.65705 13.128 7.72905L13.566 5.97405L14.663 6.24705L14.214 8.04905C15.598 8.52805 16.61 9.24405 16.412 10.574V10.574Z" fill="#008DFF"/>
</svg>
