<svg width="30" height="30" viewBox="0 0 30 30" fill="none" xmlns="http://www.w3.org/2000/svg">
<path d="M15 2.5C8.1075 2.5 2.5 8.1075 2.5 15C2.5 21.8925 8.1075 27.5 15 27.5C21.8925 27.5 27.5 21.8925 27.5 15C27.5 8.1075 21.8925 2.5 15 2.5ZM15 25C9.48625 25 5 20.5137 5 15C5 9.48625 9.48625 5 15 5C20.5137 5 25 9.48625 25 15C25 20.5137 20.5137 25 15 25Z" fill="#008DFF"/>
<path d="M15 16.9825L9.63374 11.6162L7.86624 13.3837L15 20.5175L22.1337 13.3837L20.3662 11.6162L15 16.9825Z" fill="#008DFF"/>
</svg>
